<svg xmlns="http://www.w3.org/2000/svg" width="151.031" height="90" viewBox="0 0 151.031 90">
  <defs>
    <style>
      .cls-1 {
        fill: #fff;
        stroke: #000;
        stroke-width: 1px;
        fill-rule: evenodd;
      }
    </style>
  </defs>
  <path class="cls-1" d="M844.057,2066a4.052,4.052,0,0,1,4.055,4.04v32.37a4.051,4.051,0,0,0,4.053,4.04h124l-33.617-33.54a4.049,4.049,0,0,1,5.733-5.72l40.541,40.45a4.044,4.044,0,0,1,0,5.72l-40.541,40.45a4.027,4.027,0,0,1-2.871,1.19,4.05,4.05,0,0,1-2.87-6.91l33.617-33.54h-124A12.16,12.16,0,0,1,840,2102.42v-32.37a4.047,4.047,0,0,1,4.054-4.04Z" transform="translate(-839.5 -2065.5)"/>
</svg>
